<svg width="256" height="256" viewBox="0 0 256 256" fill="none" xmlns="http://www.w3.org/2000/svg">
  <circle cx="128" cy="128" r="128" fill="#0D1323"/>
  <g transform="translate(128 128) scale(1.03) translate(-128 -128)">
    <circle cx="128" cy="128" r="98" stroke="#E7ECF4" stroke-width="10"/>
    <circle cx="128" cy="128" r="78" stroke="#E7ECF4" stroke-opacity="0.24" stroke-width="2.5"/>
    <path d="M128 8L138 52H118L128 8Z" fill="#E7ECF4"/>
    <path d="M248 128L204 138V118L248 128Z" fill="#E7ECF4"/>
    <path d="M128 248L118 204H138L128 248Z" fill="#E7ECF4"/>
    <path d="M8 128L52 118V138L8 128Z" fill="#E7ECF4"/>
    <path d="M128 52V82" stroke="#E7ECF4" stroke-opacity="0.46" stroke-width="3.5" stroke-linecap="round"/>
    <path d="M128 174V204" stroke="#E7ECF4" stroke-opacity="0.46" stroke-width="3.5" stroke-linecap="round"/>
    <path d="M52 128H82" stroke="#E7ECF4" stroke-opacity="0.46" stroke-width="3.5" stroke-linecap="round"/>
    <path d="M174 128H204" stroke="#E7ECF4" stroke-opacity="0.46" stroke-width="3.5" stroke-linecap="round"/>
    <path d="M62 97C80 84 101 77 128 77C155 77 176 84 194 97" stroke="#E7ECF4" stroke-opacity="0.18" stroke-width="4" stroke-linecap="round"/>
    <path d="M62 159C80 172 101 179 128 179C155 179 176 172 194 159" stroke="#E7ECF4" stroke-opacity="0.18" stroke-width="4" stroke-linecap="round"/>
    <text
      x="128"
      y="154"
      text-anchor="middle"
      font-family="Georgia, 'Times New Roman', serif"
      font-size="84"
      font-weight="700"
      letter-spacing="4"
      fill="#E7ECF4"
    >
      BG
    </text>
  </g>
</svg>
